# xmcd CD database file
#
# Track frame offsets:
#	150
#	24838
#	47293
#	64852
#	83647
#	102754
#	124837
#	142029
#	161405
#	181389
#	202416
#	228236
#	250398
#	269373
#	283645
#
# Disc length: 3999 seconds
#
# Revision: 0
# Processed by: cddbd v1.5.2PL0 Copyright (c) Steve Scherf et al.
# Submitted via: CDex 1.51
#
DISCID=cf0f9d0f
DTITLE=Various Artist - Salsa del Barrio
DYEAR=2006
DGENRE=Salsa
TTITLE0=Ray Martinez y Criollo - San Miguel
TTITLE1=Pepe Castillo y Orq. - Druma
TTITLE2=Vitin Aviles y Orq. - Amparame Corazon
TTITLE3=Larry Harlow y Orq. - Senor Salsa
TTITLE4=Adalberto Santiago y Orq. - Cumbia Colombiana
TTITLE5=Ray Martinez y Criollo - Campesino
TTITLE6=Vitin Aviles y Orq. - Canasta
TTITLE7=Adalberto Santiago y Orq. - Mas Sabroso
TTITLE8=Willie Villegas y Entre Amigos - Mentirosa
TTITLE9=Sonido Madera - Guarimbo
TTITLE10=Willie VIllegas y Entre Amigos - Isla Plena
TTITLE11=Sonido Madera - Canto a mi Tierra
TTITLE12=Billy Carrion y Orq. - Por Ti Yo Morire
TTITLE13=La Calandria y Pepe Castillo - El Chillo
TTITLE14=La Calandria y Pepe Castillo - Colorao
EXTD=YEAR: 2006
EXTT0=
EXTT1=
EXTT2=
EXTT3=
EXTT4=
EXTT5=
EXTT6=
EXTT7=
EXTT8=
EXTT9=
EXTT10=
EXTT11=
EXTT12=
EXTT13=
EXTT14=
PLAYORDER=
